<svg xmlns="http://www.w3.org/2000/svg" xmlns:svgjs="http://svgjs.com/svgjs" xmlns:xlink="http://www.w3.org/1999/xlink" width="288" height="288"><svg xmlns="http://www.w3.org/2000/svg" width="288" height="288" viewBox="0 0 32 32"><path fill="#fff" d="M26,30H14a2,2,0,0,1-2-2V25h2v3H26V4H14V7H12V4a2,2,0,0,1,2-2H26a2,2,0,0,1,2,2V28A2,2,0,0,1,26,30Z" class="color000 svgShape"/><polygon fill="#fff" points="14.59 20.59 18.17 17 4 17 4 15 18.17 15 14.59 11.41 16 10 22 16 16 22 14.59 20.59" class="color000 svgShape"/><rect width="32" height="32" fill="none" data-name="&amp;lt;Transparent Rectangle&amp;gt;"/></svg></svg>