<?xml version="1.0" standalone="no"?>
<!DOCTYPE svg PUBLIC "-//W3C//DTD SVG 20010904//EN"
 "http://www.w3.org/TR/2001/REC-SVG-20010904/DTD/svg10.dtd">
<svg version="1.0" xmlns="http://www.w3.org/2000/svg"
 width="500.000000pt" height="500.000000pt" viewBox="0 0 500.000000 500.000000"
 preserveAspectRatio="xMidYMid meet">
<metadata>
Created by potrace 1.14, written by Peter Selinger 2001-2017
</metadata>
<g transform="translate(0.000000,500.000000) scale(0.100000,-0.100000)"
fill="#000000" stroke="none">
<path d="M3350 4364 c-151 -95 -288 -181 -305 -189 -25 -13 -215 -131 -265
-165 -8 -5 -143 -89 -300 -187 -157 -97 -323 -200 -370 -229 -47 -29 -111 -68
-142 -86 -32 -18 -58 -36 -58 -40 0 -5 -4 -8 -9 -8 -5 0 -113 -65 -241 -144
l-232 -145 33 -14 c181 -76 1006 -432 1011 -437 5 -3 -12 -47 -37 -98 -25 -50
-45 -93 -45 -96 0 -2 -29 -64 -64 -137 -35 -74 -100 -210 -144 -304 -85 -181
-138 -295 -207 -440 -103 -216 -149 -314 -173 -365 -13 -30 -49 -107 -79 -170
-30 -63 -66 -140 -80 -170 -14 -30 -53 -111 -85 -180 -33 -69 -73 -152 -88
-185 -55 -119 -102 -220 -111 -237 -17 -32 -3 -19 52 49 30 37 63 77 74 90 11
12 30 35 42 50 12 15 32 40 45 54 13 15 37 44 53 65 17 20 35 42 40 48 6 6 42
49 80 96 38 47 72 87 75 90 3 3 59 70 125 150 65 80 121 147 124 150 4 3 47
55 96 115 49 61 92 112 95 115 3 3 25 30 50 60 25 30 47 57 50 60 3 3 68 82
145 175 76 94 147 179 157 190 22 24 46 53 89 106 41 50 494 596 523 629 11
14 41 50 66 80 54 65 49 60 194 234 64 76 116 143 116 147 0 5 -5 9 -11 9 -6
0 -25 6 -42 14 -30 14 -361 144 -612 241 -185 72 -210 82 -208 89 1 6 232 300
310 396 7 8 89 112 183 230 95 118 179 224 188 235 9 11 50 63 91 115 41 52
81 101 90 108 12 10 13 12 0 11 -8 0 -138 -79 -289 -175z"/>
<path d="M3470 4152 c-41 -66 -146 -230 -160 -252 -9 -14 -93 -145 -130 -205
-44 -71 -90 -147 -90 -150 0 -5 70 -25 86 -25 6 0 30 42 54 93 24 50 65 136
91 190 26 53 45 97 43 97 -3 0 4 13 15 29 12 16 21 32 21 35 0 4 18 45 40 92
22 47 40 90 40 95 0 5 4 9 9 9 8 0 24 41 18 46 -1 1 -18 -23 -37 -54z"/>
<path d="M1853 2153 c-17 -60 -56 -193 -87 -298 -31 -104 -67 -230 -82 -280
-14 -49 -30 -101 -34 -115 -5 -14 -30 -97 -55 -185 -26 -88 -51 -173 -57 -188
-6 -15 -8 -30 -5 -33 3 -3 14 19 25 48 19 51 113 289 337 852 58 148 103 272
98 276 -11 10 -73 30 -93 30 -12 0 -24 -26 -47 -107z"/>
</g>
</svg>
